<svg width="126" height="126" viewBox="0 0 126 126" fill="none" xmlns="http://www.w3.org/2000/svg">
<g clip-path="url(#clip0_15_92)">
<path d="M125.575 63.4623C125.575 28.9236 97.5763 0.924561 63.0377 0.924561C28.4991 0.924561 0.5 28.9236 0.5 63.4623C0.5 98.0009 28.4991 126 63.0377 126C97.5763 126 125.575 98.0009 125.575 63.4623Z" fill="white"/>
</g>
<g clip-path="url(#clip1_15_92)">
<path d="M51.4101 55.2716L29.9318 31.2942V20.6592L30.2645 20.1646L64.5966 42.4796L51.4101 55.2716ZM31.8957 30.5554L51.5097 52.4518L61.4792 42.7811L31.8957 23.5523V30.5554Z" fill="#4654A3"/>
<path d="M74.6652 55.2715L61.4792 42.4801L95.436 20.4086L96.1436 20.564V31.2947L74.6652 55.2715ZM64.5967 42.781L74.5656 52.4518L94.1796 30.5554V23.5523L64.5967 42.781Z" fill="#4654A3"/>
<path d="M95.1613 21.6321H30.914C30.6547 21.6333 30.4056 21.5315 30.2215 21.349C30.0373 21.1666 29.9331 20.9185 29.9318 20.6592C29.9318 20.1219 30.3712 19.6863 30.914 19.6863H95.1618C95.7041 19.6863 96.1441 20.1219 96.1441 20.6592C96.1426 20.9185 96.0383 21.1666 95.854 21.3491C95.6697 21.5315 95.4206 21.6333 95.1613 21.6321Z" fill="#4654A3"/>
<path d="M63.0377 59.7909L54.2074 51.225C54.1154 51.136 54.042 51.0297 53.9914 50.9121C53.9408 50.7946 53.914 50.6682 53.9127 50.5402C53.9113 50.4123 53.9353 50.2853 53.9834 50.1667C54.0314 50.0481 54.1026 49.9402 54.1926 49.8493C54.3758 49.6649 54.6242 49.56 54.8841 49.5573C55.144 49.5546 55.3946 49.6544 55.5814 49.8351L63.0377 57.0675L70.4939 49.8351C70.6808 49.6546 70.9313 49.5549 71.1912 49.5575C71.4511 49.5602 71.6994 49.665 71.8827 49.8493C71.9727 49.9402 72.0439 50.0481 72.0919 50.1667C72.14 50.2853 72.164 50.4123 72.1627 50.5402C72.1613 50.6682 72.1345 50.7946 72.0839 50.9121C72.0333 51.0297 71.9599 51.136 71.8679 51.225L63.0377 59.7909Z" fill="#4654A3"/>
<path d="M63.0376 107.239C62.7848 107.239 62.5326 107.143 62.34 106.951L49.8757 94.4974L58.0367 54.3206C58.0897 54.0664 58.2411 53.8436 58.4579 53.7008C58.6746 53.5579 58.9391 53.5067 59.1935 53.5583C59.3194 53.5828 59.4392 53.6319 59.5461 53.7028C59.6529 53.7737 59.7447 53.865 59.8162 53.9714C59.8877 54.0779 59.9374 54.1974 59.9626 54.3232C59.9878 54.4489 59.9879 54.5784 59.9629 54.7041L52.0082 93.8638L63.7348 105.581C63.8255 105.671 63.8973 105.779 63.9462 105.897C63.9951 106.015 64.0199 106.142 64.0194 106.27C64.0188 106.398 63.9928 106.525 63.9429 106.643C63.8931 106.76 63.8203 106.867 63.7288 106.957C63.5372 107.145 63.2877 107.239 63.0376 107.239Z" fill="#4654A3"/>
<path d="M63.0376 107.239C62.7876 107.239 62.538 107.145 62.3465 106.957C62.255 106.868 62.1822 106.761 62.1323 106.643C62.0825 106.525 62.0565 106.399 62.0559 106.271C62.0554 106.143 62.0802 106.016 62.1291 105.898C62.1779 105.779 62.2498 105.672 62.3405 105.582L74.0671 93.8643L66.1124 54.7047C66.0873 54.5789 66.0874 54.4494 66.1125 54.3236C66.1377 54.1979 66.1874 54.0783 66.2589 53.9718C66.3304 53.8654 66.4222 53.7741 66.5291 53.7032C66.636 53.6323 66.7558 53.5833 66.8817 53.5588C67.1361 53.5075 67.4005 53.5589 67.6172 53.7017C67.8339 53.8445 67.9853 54.0671 68.0385 54.3211L76.1995 94.498L63.7359 106.952C63.5503 107.136 63.2992 107.239 63.0376 107.239Z" fill="#4654A3"/>
</g>
<defs>
<clipPath id="clip0_15_92">
<rect width="125.075" height="125.075" fill="white" transform="translate(0.5 0.924561)"/>
</clipPath>
<clipPath id="clip1_15_92">
<rect width="66.2123" height="87.5528" fill="white" transform="translate(29.9318 19.6863)"/>
</clipPath>
</defs>
</svg>
