<svg width="36" height="36" viewBox="0 0 36 36" fill="none" xmlns="http://www.w3.org/2000/svg">
<path d="M8.35987 19.948C8.86523 19.4397 9.25213 18.8261 9.49299 18.151C9.73384 17.476 9.82269 16.756 9.7532 16.0426L9.77852 16.0666C9.70759 15.2266 9.82087 14.3812 10.1105 13.5894C10.4001 12.7977 10.8591 12.0788 11.4553 11.4828C12.0516 10.8868 12.7707 10.4281 13.5625 10.1389C14.3544 9.84959 15.1999 9.73665 16.0399 9.80796L16.0145 9.78396C17.0188 9.87805 18.0277 9.66007 18.9036 9.15975C19.7795 8.65944 20.4796 7.90113 20.9088 6.98827C21.3379 6.07539 21.4749 5.05239 21.3013 4.05875C21.1277 3.06511 20.6517 2.14921 19.9385 1.43596C19.2253 0.722707 18.3093 0.246814 17.3157 0.0731873C16.3221 -0.100453 15.2991 0.0366406 14.3863 0.465734C13.4733 0.894827 12.7151 1.59505 12.2148 2.47092C11.7144 3.34679 11.4964 4.35567 11.5905 5.35996L11.5665 5.33596C11.6375 6.17576 11.5241 7.02092 11.2347 7.81244C10.9452 8.60396 10.4866 9.32277 9.89061 9.91872C9.29468 10.5147 8.57585 10.9734 7.78433 11.2628C6.99281 11.5522 6.14767 11.6656 5.30787 11.5946L5.33187 11.6186C4.51129 11.545 3.68541 11.6798 2.93077 12.0104C2.17613 12.3409 1.51713 12.8566 1.01485 13.5097C0.512572 14.1626 0.183265 14.932 0.0574252 15.7461C-0.0684015 16.5604 0.0133185 17.3932 0.295012 18.1673C0.576705 18.9416 1.04928 19.6321 1.66892 20.175C2.28856 20.7181 3.03523 21.0958 3.83973 21.2734C4.64423 21.4509 5.48053 21.4225 6.27116 21.1909C7.06177 20.9592 7.78111 20.5317 8.36252 19.948H8.35987Z" fill="#394149"/>
<path d="M17.296 22.624L17.2707 22.6C17.9844 22.6718 18.7052 22.5842 19.3811 22.3434C20.0568 22.1026 20.6707 21.7148 21.1781 21.2077C21.6855 20.7006 22.074 20.087 22.3152 19.4114C22.5565 18.7358 22.6447 18.0152 22.5733 17.3013L22.5987 17.3253C22.5277 16.4854 22.6411 15.6404 22.9304 14.8488C23.2199 14.0573 23.6787 13.3385 24.2745 12.7425C24.8705 12.1466 25.5893 11.6878 26.3808 11.3985C27.1724 11.109 28.0175 10.9957 28.8573 11.0666L28.832 11.0426C29.8367 11.137 30.8459 10.9191 31.7221 10.4188C32.5985 9.91841 33.2991 9.15992 33.7284 8.24676C34.1577 7.33361 34.2949 6.31024 34.1213 5.31622C33.9477 4.32221 33.4717 3.40597 32.7581 2.69245C32.0447 1.97894 31.1284 1.50289 30.1344 1.32926C29.1404 1.15562 28.1171 1.29284 27.2039 1.7222C26.2907 2.15154 25.5323 2.85214 25.0319 3.72842C24.5315 4.60469 24.3136 5.61398 24.408 6.61862L24.384 6.59329C24.4551 7.43314 24.342 8.2784 24.0527 9.07002C23.7633 9.86165 23.3045 10.5806 22.7087 11.1766C22.1127 11.7725 21.3937 12.2313 20.6021 12.5206C19.8104 12.81 18.9652 12.923 18.1253 12.852L18.1493 12.8773C17.4356 12.8054 16.7147 12.893 16.0389 13.1338C15.3632 13.3745 14.7493 13.7625 14.2419 14.2696C13.7344 14.7766 13.346 15.3902 13.1047 16.0658C12.8635 16.7414 12.7753 17.4621 12.8467 18.176L12.8227 18.152C12.8933 18.9917 12.7799 19.8368 12.4904 20.6282C12.2008 21.4196 11.7421 22.1384 11.1463 22.7342C10.5503 23.3301 9.83162 23.7888 9.04021 24.0784C8.24879 24.3678 7.40374 24.4813 6.56399 24.4106L6.58799 24.4346C5.58335 24.3402 4.57406 24.5581 3.69778 25.0585C2.82151 25.5589 2.12091 26.3173 1.69157 27.2305C1.26221 28.1437 1.12498 29.167 1.29862 30.161C1.47226 31.155 1.94831 32.0713 2.66182 32.7848C3.37534 33.4984 4.29158 33.9744 5.28559 34.148C6.27961 34.3216 7.30298 34.1844 8.21614 33.755C9.12929 33.3257 9.88778 32.6252 10.3881 31.7489C10.8885 30.8725 11.1064 29.8633 11.012 28.8586L11.0373 28.8826C10.9664 28.0428 11.0797 27.1977 11.3692 26.4061C11.6585 25.6146 12.1173 24.8958 12.7132 24.2998C13.3092 23.704 14.028 23.2452 14.8195 22.9558C15.6111 22.6664 16.4561 22.553 17.296 22.624Z" fill="#006B6A"/>
<path d="M27.132 15.604C26.6266 16.1124 26.2397 16.726 25.9986 17.4009C25.7576 18.076 25.6684 18.7958 25.7373 19.5093L25.7133 19.4853C25.7842 20.3252 25.6709 21.1702 25.3814 21.9618C25.092 22.7533 24.6333 23.4721 24.0374 24.0681C23.4414 24.664 22.7226 25.1228 21.931 25.4121C21.1396 25.7016 20.2944 25.8149 19.4546 25.744L19.4786 25.7679C18.4741 25.6745 17.4652 25.893 16.5893 26.3939C15.7136 26.8949 15.0136 27.6537 14.5849 28.567C14.1562 29.4804 14.0196 30.5035 14.1937 31.4974C14.368 32.4912 14.8444 33.407 15.5581 34.1201C16.2718 34.8332 17.1881 35.3087 18.182 35.4819C19.176 35.6553 20.199 35.5177 21.112 35.0882C22.0249 34.6586 22.783 33.9581 23.2832 33.0818C23.7833 32.2056 24.001 31.1965 23.9066 30.192L23.932 30.216C23.861 29.3762 23.9742 28.531 24.2637 27.7394C24.5532 26.948 25.012 26.2292 25.6078 25.6332C26.2038 25.0373 26.9226 24.5785 27.7141 24.2891C28.5057 23.9997 29.3508 23.8863 30.1906 23.9573L30.1653 23.9333C30.9858 24.007 31.8118 23.8725 32.5666 23.5421C33.3213 23.2117 33.9805 22.6961 34.4829 22.0431C34.9853 21.3902 35.3149 20.6209 35.4408 19.8068C35.5668 18.9925 35.4852 18.1597 35.2036 17.3853C34.922 16.611 34.4494 15.9204 33.8298 15.3773C33.2102 14.8342 32.4636 14.4564 31.659 14.2788C30.8545 14.1012 30.0181 14.1294 29.2274 14.361C28.4368 14.5928 27.7174 15.0202 27.136 15.604H27.132Z" fill="#394149"/>
</svg>
